<svg data-v-fde0c5aa="" xmlns="http://www.w3.org/2000/svg" viewBox="0 0 300 300" class="iconLeft"><!----><defs data-v-fde0c5aa=""><!----></defs><rect data-v-fde0c5aa="" fill="transparent" x="0" y="0" width="300px" height="300px" class="logo-background-square"></rect><defs data-v-fde0c5aa=""><!----></defs><g data-v-fde0c5aa="" id="69d5f199-340f-4aab-aaf8-b2c455e5e4ba" fill="#FF0000" transform="matrix(2.2987997866015477,0,0,2.2987997866015477,67.24563372807822,131.08087716434656)"><path d="M0.77 5.17L0.77 3.09L8.79 3.09L8.79 6.62L6.57 6.62L6.57 5.17L4.12 5.17L4.12 7.35L6.24 7.35L6.24 9.34L4.12 9.34L4.12 11.58L5.21 11.58L5.21 13.45L0.77 13.45L0.77 11.58L1.85 11.58L1.85 5.17L0.77 5.17ZM9.28 9.88L9.28 9.88L9.28 9.88Q9.28 9.11 9.56 8.44L9.56 8.44L9.56 8.44Q9.84 7.76 10.34 7.25L10.34 7.25L10.34 7.25Q10.84 6.75 11.53 6.45L11.53 6.45L11.53 6.45Q12.22 6.16 13.05 6.16L13.05 6.16L13.05 6.16Q13.88 6.16 14.57 6.45L14.57 6.45L14.57 6.45Q15.26 6.75 15.76 7.25L15.76 7.25L15.76 7.25Q16.26 7.76 16.54 8.44L16.54 8.44L16.54 8.44Q16.82 9.11 16.82 9.88L16.82 9.88L16.82 9.88Q16.82 10.66 16.55 11.34L16.55 11.34L16.55 11.34Q16.28 12.02 15.78 12.53L15.78 12.53L15.78 12.53Q15.29 13.04 14.59 13.33L14.59 13.33L14.59 13.33Q13.90 13.62 13.05 13.62L13.05 13.62L13.05 13.62Q12.20 13.62 11.50 13.33L11.50 13.33L11.50 13.33Q10.81 13.04 10.32 12.53L10.32 12.53L10.32 12.53Q9.82 12.02 9.55 11.34L9.55 11.34L9.55 11.34Q9.28 10.66 9.28 9.88ZM11.33 9.88L11.33 9.88L11.33 9.88Q11.33 10.29 11.46 10.63L11.46 10.63L11.46 10.63Q11.60 10.96 11.84 11.21L11.84 11.21L11.84 11.21Q12.07 11.46 12.38 11.59L12.38 11.59L12.38 11.59Q12.69 11.73 13.05 11.73L13.05 11.73L13.05 11.73Q13.41 11.73 13.72 11.60L13.72 11.60L13.72 11.60Q14.03 11.46 14.26 11.22L14.26 11.22L14.26 11.22Q14.49 10.97 14.62 10.63L14.62 10.63L14.62 10.63Q14.75 10.29 14.75 9.88L14.75 9.88L14.75 9.88Q14.75 9.46 14.62 9.12L14.62 9.12L14.62 9.12Q14.49 8.78 14.26 8.54L14.26 8.54L14.26 8.54Q14.03 8.30 13.72 8.17L13.72 8.17L13.72 8.17Q13.41 8.05 13.05 8.05L13.05 8.05L13.05 8.05Q12.69 8.05 12.38 8.17L12.38 8.17L12.38 8.17Q12.07 8.30 11.84 8.54L11.84 8.54L11.84 8.54Q11.60 8.78 11.46 9.12L11.46 9.12L11.46 9.12Q11.33 9.46 11.33 9.88ZM17.79 9.88L17.79 9.88L17.79 9.88Q17.79 9.11 18.07 8.44L18.07 8.44L18.07 8.44Q18.35 7.76 18.85 7.25L18.85 7.25L18.85 7.25Q19.35 6.75 20.04 6.45L20.04 6.45L20.04 6.45Q20.73 6.16 21.56 6.16L21.56 6.16L21.56 6.16Q22.39 6.16 23.08 6.45L23.08 6.45L23.08 6.45Q23.78 6.75 24.27 7.25L24.27 7.25L24.27 7.25Q24.77 7.76 25.05 8.44L25.05 8.44L25.05 8.44Q25.33 9.11 25.33 9.88L25.33 9.88L25.33 9.88Q25.33 10.66 25.06 11.34L25.06 11.34L25.06 11.34Q24.79 12.02 24.29 12.53L24.29 12.53L24.29 12.53Q23.80 13.04 23.10 13.33L23.10 13.33L23.10 13.33Q22.41 13.62 21.56 13.62L21.56 13.62L21.56 13.62Q20.71 13.62 20.01 13.33L20.01 13.33L20.01 13.33Q19.32 13.04 18.83 12.53L18.83 12.53L18.83 12.53Q18.33 12.02 18.06 11.34L18.06 11.34L18.06 11.34Q17.79 10.66 17.79 9.88ZM19.84 9.88L19.84 9.88L19.84 9.88Q19.84 10.29 19.97 10.63L19.97 10.63L19.97 10.63Q20.11 10.96 20.35 11.21L20.35 11.21L20.35 11.21Q20.58 11.46 20.89 11.59L20.89 11.59L20.89 11.59Q21.21 11.73 21.56 11.73L21.56 11.73L21.56 11.73Q21.92 11.73 22.23 11.60L22.23 11.60L22.23 11.60Q22.54 11.46 22.77 11.22L22.77 11.22L22.77 11.22Q23.00 10.97 23.13 10.63L23.13 10.63L23.13 10.63Q23.26 10.29 23.26 9.88L23.26 9.88L23.26 9.88Q23.26 9.46 23.13 9.12L23.13 9.12L23.13 9.12Q23.00 8.78 22.77 8.54L22.77 8.54L22.77 8.54Q22.54 8.30 22.23 8.17L22.23 8.17L22.23 8.17Q21.92 8.05 21.56 8.05L21.56 8.05L21.56 8.05Q21.21 8.05 20.89 8.17L20.89 8.17L20.89 8.17Q20.58 8.30 20.35 8.54L20.35 8.54L20.35 8.54Q20.11 8.78 19.97 9.12L19.97 9.12L19.97 9.12Q19.84 9.46 19.84 9.88ZM30.55 4.69L30.55 2.82L33.65 2.82L33.65 11.58L35.03 11.58L35.03 13.45L31.54 13.45L31.54 13.18L31.54 13.18Q31.17 13.37 30.79 13.48L30.79 13.48L30.79 13.48Q30.40 13.59 30.00 13.59L30.00 13.59L30.00 13.59Q29.19 13.59 28.51 13.30L28.51 13.30L28.51 13.30Q27.83 13.01 27.34 12.50L27.34 12.50L27.34 12.50Q26.85 12.00 26.58 11.32L26.58 11.32L26.58 11.32Q26.30 10.64 26.30 9.86L26.30 9.86L26.30 9.86Q26.30 9.08 26.57 8.40L26.57 8.40L26.57 8.40Q26.84 7.73 27.33 7.23L27.33 7.23L27.33 7.23Q27.81 6.73 28.48 6.45L28.48 6.45L28.48 6.45Q29.16 6.16 29.96 6.16L29.96 6.16L29.96 6.16Q30.41 6.16 30.80 6.24L30.80 6.24L30.80 6.24Q31.19 6.33 31.54 6.49L31.54 6.49L31.54 4.69L30.55 4.69ZM30.12 11.70L30.12 11.70L30.12 11.70Q30.57 11.69 30.94 11.47L30.94 11.47L30.94 11.47Q31.30 11.25 31.54 10.90L31.54 10.90L31.54 8.81L31.54 8.81Q31.30 8.45 30.92 8.25L30.92 8.25L30.92 8.25Q30.54 8.05 30.12 8.05L30.12 8.05L30.12 8.05Q29.76 8.05 29.45 8.18L29.45 8.18L29.45 8.18Q29.14 8.31 28.91 8.54L28.91 8.54L28.91 8.54Q28.67 8.78 28.53 9.12L28.53 9.12L28.53 9.12Q28.40 9.45 28.40 9.88L28.40 9.88L28.40 9.88Q28.40 10.29 28.53 10.63L28.53 10.63L28.53 10.63Q28.67 10.97 28.91 11.21L28.91 11.21L28.91 11.21Q29.14 11.44 29.45 11.57L29.45 11.57L29.45 11.57Q29.76 11.69 30.12 11.70ZM46.92 4.97L46.92 3.09L51.36 3.09L51.36 4.97L50.42 4.97L48.04 13.45L45.08 13.45L43.52 6.99L41.92 13.45L38.99 13.45L36.57 4.97L35.52 4.97L35.52 3.09L39.96 3.09L39.96 4.97L38.88 4.97L40.41 10.55L42.25 3.11L44.79 3.11L46.59 10.55L48.13 4.97L46.92 4.97ZM56.40 13.45L56.40 13.07L56.40 13.07Q56.16 13.22 55.96 13.33L55.96 13.33L55.96 13.33Q55.76 13.43 55.56 13.50L55.56 13.50L55.56 13.50Q55.36 13.56 55.15 13.59L55.15 13.59L55.15 13.59Q54.94 13.62 54.69 13.62L54.69 13.62L54.69 13.62Q54.05 13.62 53.55 13.45L53.55 13.45L53.55 13.45Q53.05 13.28 52.70 12.97L52.70 12.97L52.70 12.97Q52.36 12.67 52.17 12.25L52.17 12.25L52.17 12.25Q51.99 11.84 51.99 11.35L51.99 11.35L51.99 11.35Q51.99 10.86 52.18 10.45L52.18 10.45L52.18 10.45Q52.36 10.03 52.72 9.73L52.72 9.73L52.72 9.73Q53.07 9.43 53.59 9.27L53.59 9.27L53.59 9.27Q54.11 9.10 54.77 9.10L54.77 9.10L54.77 9.10Q55.25 9.10 55.65 9.15L55.65 9.15L55.65 9.15Q56.05 9.20 56.40 9.28L56.40 9.28L56.40 9.06L56.40 9.06Q56.40 8.79 56.29 8.60L56.29 8.60L56.29 8.60Q56.19 8.40 56.01 8.27L56.01 8.27L56.01 8.27Q55.82 8.15 55.56 8.09L55.56 8.09L55.56 8.09Q55.30 8.03 55.00 8.03L55.00 8.03L55.00 8.03Q54.35 8.03 53.86 8.16L53.86 8.16L53.86 8.16Q53.38 8.29 52.92 8.52L52.92 8.52L52.27 7.20L52.27 7.20Q52.96 6.72 53.73 6.47L53.73 6.47L53.73 6.47Q54.49 6.21 55.34 6.21L55.34 6.21L55.34 6.21Q56.01 6.21 56.57 6.36L56.57 6.36L56.57 6.36Q57.13 6.51 57.54 6.84L57.54 6.84L57.54 6.84Q57.94 7.17 58.17 7.70L58.17 7.70L58.17 7.70Q58.40 8.24 58.40 9.00L58.40 9.00L58.40 11.58L59.35 11.58L59.35 13.45L56.40 13.45ZM54.84 12.01L54.84 12.01L54.84 12.01Q55.32 12.01 55.72 11.85L55.72 11.85L55.72 11.85Q56.12 11.70 56.40 11.47L56.40 11.47L56.40 10.57L54.76 10.57L54.76 10.57Q54.60 10.57 54.45 10.62L54.45 10.62L54.45 10.62Q54.30 10.66 54.18 10.75L54.18 10.75L54.18 10.75Q54.06 10.84 53.99 10.97L53.99 10.97L53.99 10.97Q53.92 11.10 53.92 11.27L53.92 11.27L53.92 11.27Q53.92 11.59 54.14 11.80L54.14 11.80L54.14 11.80Q54.37 12.01 54.84 12.01ZM60.53 8.24L60.53 6.37L64.22 6.37L64.22 8.24L63.36 8.24L64.52 11.29L65.63 8.24L64.87 8.24L64.87 6.37L68.56 6.37L68.56 8.24L67.62 8.24L65.51 13.48L63.42 13.48L61.31 8.24L60.53 8.24ZM76.44 10.36L71.22 10.36L71.24 10.57L71.24 10.57Q71.32 10.88 71.50 11.11L71.50 11.11L71.50 11.11Q71.68 11.34 71.93 11.50L71.93 11.50L71.93 11.50Q72.17 11.66 72.47 11.73L72.47 11.73L72.47 11.73Q72.78 11.81 73.08 11.81L73.08 11.81L73.08 11.81Q73.39 11.81 73.67 11.77L73.67 11.77L73.67 11.77Q73.94 11.74 74.20 11.67L74.20 11.67L74.20 11.67Q74.46 11.61 74.71 11.52L74.71 11.52L74.71 11.52Q74.96 11.44 75.21 11.34L75.21 11.34L75.96 12.74L75.96 12.74Q75.57 12.98 75.25 13.15L75.25 13.15L75.25 13.15Q74.92 13.32 74.59 13.43L74.59 13.43L74.59 13.43Q74.27 13.54 73.90 13.59L73.90 13.59L73.90 13.59Q73.53 13.64 73.04 13.64L73.04 13.64L73.04 13.64Q72.11 13.64 71.39 13.33L71.39 13.33L71.39 13.33Q70.68 13.03 70.19 12.51L70.19 12.51L70.19 12.51Q69.70 11.99 69.44 11.29L69.44 11.29L69.44 11.29Q69.19 10.60 69.19 9.82L69.19 9.82L69.19 9.82Q69.19 9.04 69.46 8.35L69.46 8.35L69.46 8.35Q69.73 7.67 70.22 7.16L70.22 7.16L70.22 7.16Q70.71 6.65 71.39 6.36L71.39 6.36L71.39 6.36Q72.08 6.06 72.91 6.06L72.91 6.06L72.91 6.06Q73.75 6.06 74.39 6.34L74.39 6.34L74.39 6.34Q75.04 6.62 75.48 7.11L75.48 7.11L75.48 7.11Q75.93 7.59 76.17 8.25L76.17 8.25L76.17 8.25Q76.41 8.91 76.43 9.67L76.43 9.67L76.43 9.67Q76.45 9.84 76.45 10.01L76.45 10.01L76.45 10.01Q76.45 10.18 76.44 10.36L76.44 10.36ZM72.86 7.77L72.86 7.77L72.86 7.77Q72.47 7.77 72.20 7.86L72.20 7.86L72.20 7.86Q71.93 7.96 71.75 8.12L71.75 8.12L71.75 8.12Q71.57 8.28 71.46 8.48L71.46 8.48L71.46 8.48Q71.35 8.69 71.29 8.91L71.29 8.91L74.25 8.91L74.25 8.91Q74.20 8.68 74.11 8.48L74.11 8.48L74.11 8.48Q74.02 8.27 73.86 8.11L73.86 8.11L73.86 8.11Q73.71 7.96 73.46 7.86L73.46 7.86L73.46 7.86Q73.22 7.77 72.86 7.77ZM82.01 8.54L82.01 8.54Q82.01 8.37 81.90 8.22L81.90 8.22L81.90 8.22Q81.80 8.07 81.59 7.96L81.59 7.96L81.59 7.96Q81.39 7.85 81.09 7.78L81.09 7.78L81.09 7.78Q80.79 7.71 80.42 7.71L80.42 7.71L80.42 7.71Q80.27 7.71 80.11 7.73L80.11 7.73L80.11 7.73Q79.95 7.76 79.81 7.82L79.81 7.82L79.81 7.82Q79.67 7.88 79.57 7.99L79.57 7.99L79.57 7.99Q79.48 8.09 79.48 8.26L79.48 8.26L79.48 8.26Q79.48 8.34 79.51 8.42L79.51 8.42L79.51 8.42Q79.53 8.49 79.60 8.56L79.60 8.56L79.60 8.56Q79.67 8.63 79.79 8.69L79.79 8.69L79.79 8.69Q79.91 8.74 80.10 8.78L80.10 8.78L81.38 9.03L81.38 9.03Q82.08 9.17 82.55 9.37L82.55 9.37L82.55 9.37Q83.02 9.58 83.31 9.85L83.31 9.85L83.31 9.85Q83.60 10.12 83.72 10.46L83.72 10.46L83.72 10.46Q83.85 10.79 83.85 11.18L83.85 11.18L83.85 11.18Q83.85 11.79 83.57 12.25L83.57 12.25L83.57 12.25Q83.28 12.71 82.82 13.01L82.82 13.01L82.82 13.01Q82.36 13.32 81.78 13.47L81.78 13.47L81.78 13.47Q81.20 13.62 80.62 13.62L80.62 13.62L80.62 13.62Q80.23 13.62 79.92 13.58L79.92 13.58L79.92 13.58Q79.61 13.53 79.36 13.45L79.36 13.45L79.36 13.45Q79.11 13.36 78.92 13.25L78.92 13.25L78.92 13.25Q78.72 13.14 78.56 13.00L78.56 13.00L77.32 13.00L77.32 11.10L79.26 11.10L79.26 11.14L79.26 11.14Q79.26 11.34 79.38 11.49L79.38 11.49L79.38 11.49Q79.50 11.63 79.68 11.74L79.68 11.74L79.68 11.74Q79.87 11.84 80.11 11.89L80.11 11.89L80.11 11.89Q80.35 11.94 80.62 11.94L80.62 11.94L80.62 11.94Q81.23 11.94 81.51 11.78L81.51 11.78L81.51 11.78Q81.79 11.62 81.79 11.37L81.79 11.37L81.79 11.37Q81.79 11.17 81.66 11.03L81.66 11.03L81.66 11.03Q81.52 10.89 81.17 10.81L81.17 10.81L79.86 10.53L79.86 10.53Q78.62 10.29 77.99 9.73L77.99 9.73L77.99 9.73Q77.36 9.17 77.36 8.30L77.36 8.30L77.36 8.30Q77.36 7.79 77.60 7.37L77.60 7.37L77.60 7.37Q77.84 6.95 78.25 6.65L78.25 6.65L78.25 6.65Q78.66 6.35 79.21 6.19L79.21 6.19L79.21 6.19Q79.76 6.02 80.39 6.02L80.39 6.02L80.39 6.02Q80.82 6.02 81.16 6.07L81.16 6.07L81.16 6.07Q81.49 6.13 81.76 6.21L81.76 6.21L81.76 6.21Q82.02 6.29 82.23 6.40L82.23 6.40L82.23 6.40Q82.43 6.51 82.58 6.64L82.58 6.64L83.77 6.64L83.77 8.54L82.01 8.54Z"></path></g><defs data-v-fde0c5aa=""><!----></defs><g data-v-fde0c5aa="" id="c7c06e9f-ace7-4d5f-917f-5f820e41ba48" stroke="none" fill="#0ACA1A" transform="matrix(0.39955367893015203,0,0,0.39955367893015203,28.046952756892807,130.14657757686174)"><path d="M51.297 49.234C51.297 39.206 70 42.026 70 30.743V18.715c0 11.284-18.703 8.462-18.703 18.491v12.028z"></path><path d="M51.297 33.521C51.297 23.49 70 26.312 70 15.027V3c0 11.283-18.703 8.463-18.703 18.492v12.029zM51.297 80.665C51.297 70.636 70 73.454 70 62.171V50.144c0 11.284-18.703 8.463-18.703 18.493v12.028z"></path><path d="M51.297 64.95C51.297 54.919 70 57.739 70 46.457V34.429c0 11.284-18.703 8.463-18.703 18.492V64.95zM51.297 96.378C51.297 86.349 70 89.17 70 77.886v-12.03c0 11.285-18.703 8.463-18.703 18.493v12.029zM48.62 49.234c0-10.028-18.704-7.208-18.704-18.491V18.715c0 11.284 18.704 8.462 18.704 18.491v12.028z"></path><path d="M48.62 33.521c0-10.031-18.704-7.209-18.704-18.494V3c0 11.283 18.704 8.463 18.704 18.492v12.029zM48.62 80.665c0-10.029-18.704-7.211-18.704-18.494V50.144c0 11.284 18.704 8.463 18.704 18.493v12.028z"></path><path d="M48.62 64.95c0-10.031-18.704-7.211-18.704-18.494V34.429c0 11.284 18.704 8.463 18.704 18.492V64.95zM48.62 96.378c0-10.029-18.704-7.208-18.704-18.492v-12.03c0 11.285 18.704 8.463 18.704 18.493v12.029z"></path></g><!----></svg>